<?xml version="1.0" encoding="UTF-8" standalone="no" ?>
<!DOCTYPE svg PUBLIC "-//W3C//DTD SVG 1.1//EN" "http://www.w3.org/Graphics/SVG/1.1/DTD/svg11.dtd">
<svg xmlns="http://www.w3.org/2000/svg" xmlns:xlink="http://www.w3.org/1999/xlink" version="1.1" width="256" height="400" viewBox="0 0 256 400" xml:space="preserve">
<desc>Created with Fabric.js 4.6.0</desc>
<defs>
</defs>
<g transform="matrix(1 0 0 1 128 200)" id="MAmuHIZ6GgLJnFoxEEaqf"  >
<path style="stroke: rgb(255,255,255); stroke-width: 0; stroke-dasharray: none; stroke-linecap: butt; stroke-dashoffset: 0; stroke-linejoin: miter; stroke-miterlimit: 4; fill: rgb(225,155,78); fill-rule: nonzero; opacity: 1;" vector-effect="non-scaling-stroke"  transform=" translate(-100, -200)" d="M 0 0 L 200 0 L 200 400 L 0 400 z" stroke-linecap="round" />
</g>
<g transform="matrix(1 0 0 1 128 201)" id="2UznPn3QJGIieHqCWKeiO"  >
<path style="stroke: rgb(236,196,8); stroke-width: 0; stroke-dasharray: none; stroke-linecap: butt; stroke-dashoffset: 0; stroke-linejoin: miter; stroke-miterlimit: 4; fill: rgb(255,255,255); fill-rule: nonzero; opacity: 1;" vector-effect="non-scaling-stroke"  transform=" translate(-100, -1)" d="M 0 0 L 200 0 L 200 2 L 0 2 z" stroke-linecap="round" />
</g>
<g transform="matrix(1 0 0 1 128 134)" id="2BHfproTW2dJawfURxmWf"  >
<path style="stroke: rgb(236,196,8); stroke-width: 0; stroke-dasharray: none; stroke-linecap: butt; stroke-dashoffset: 0; stroke-linejoin: miter; stroke-miterlimit: 4; fill: rgb(255,255,255); fill-rule: nonzero; opacity: 1;" vector-effect="non-scaling-stroke"  transform=" translate(-100, -1)" d="M 0 0 L 200 0 L 200 2 L 0 2 z" stroke-linecap="round" />
</g>
<g transform="matrix(1 0 0 1 128 267)" id="60GNMYQJ-RDC0EEg0ectv"  >
<path style="stroke: rgb(236,196,8); stroke-width: 0; stroke-dasharray: none; stroke-linecap: butt; stroke-dashoffset: 0; stroke-linejoin: miter; stroke-miterlimit: 4; fill: rgb(255,255,255); fill-rule: nonzero; opacity: 1;" vector-effect="non-scaling-stroke"  transform=" translate(-100, -1)" d="M 0 0 L 200 0 L 200 2 L 0 2 z" stroke-linecap="round" />
</g>
<g transform="matrix(1 0 0 1 23.5 267)" id="zl8AJ1eb7x_0NdwgEoS1Y"  >
<path style="stroke: rgb(255,255,255); stroke-width: 0; stroke-dasharray: none; stroke-linecap: butt; stroke-dashoffset: 0; stroke-linejoin: miter; stroke-miterlimit: 4; fill: rgb(255,255,255); fill-rule: nonzero; opacity: 1;" vector-effect="non-scaling-stroke"  transform=" translate(-2.5, -1)" d="M 0 0 L 5 0 L 5 2 L 0 2 z" stroke-linecap="round" />
</g>
<g transform="matrix(1 0 0 1 16.5 267)" id="kTucSQIR_13Q8Qok-yjJk"  >
<path style="stroke: rgb(255,255,255); stroke-width: 0; stroke-dasharray: none; stroke-linecap: butt; stroke-dashoffset: 0; stroke-linejoin: miter; stroke-miterlimit: 4; fill: rgb(255,255,255); fill-rule: nonzero; opacity: 1;" vector-effect="non-scaling-stroke"  transform=" translate(-2.5, -1)" d="M 0 0 L 5 0 L 5 2 L 0 2 z" stroke-linecap="round" />
</g>
<g transform="matrix(1 0 0 1 9.5 267)" id="htS--0-VP0LmGHhJIPqbb"  >
<path style="stroke: rgb(255,255,255); stroke-width: 0; stroke-dasharray: none; stroke-linecap: butt; stroke-dashoffset: 0; stroke-linejoin: miter; stroke-miterlimit: 4; fill: rgb(255,255,255); fill-rule: nonzero; opacity: 1;" vector-effect="non-scaling-stroke"  transform=" translate(-2.5, -1)" d="M 0 0 L 5 0 L 5 2 L 0 2 z" stroke-linecap="round" />
</g>
<g transform="matrix(1 0 0 1 2.5 267)" id="wopN43fNSyBNShuzddH9q"  >
<path style="stroke: rgb(255,255,255); stroke-width: 0; stroke-dasharray: none; stroke-linecap: butt; stroke-dashoffset: 0; stroke-linejoin: miter; stroke-miterlimit: 4; fill: rgb(255,255,255); fill-rule: nonzero; opacity: 1;" vector-effect="non-scaling-stroke"  transform=" translate(-2.5, -1)" d="M 0 0 L 5 0 L 5 2 L 0 2 z" stroke-linecap="round" />
</g>
<g transform="matrix(1 0 0 1 23.5 134)" id="l3u70I0dhoEUfgPqTuC0w"  >
<path style="stroke: rgb(255,255,255); stroke-width: 0; stroke-dasharray: none; stroke-linecap: butt; stroke-dashoffset: 0; stroke-linejoin: miter; stroke-miterlimit: 4; fill: rgb(255,255,255); fill-rule: nonzero; opacity: 1;" vector-effect="non-scaling-stroke"  transform=" translate(-2.5, -1)" d="M 0 0 L 5 0 L 5 2 L 0 2 z" stroke-linecap="round" />
</g>
<g transform="matrix(1 0 0 1 253.5 267)" id="wcPlirMKAJ_Br5Wg_q_wC"  >
<path style="stroke: rgb(255,255,255); stroke-width: 0; stroke-dasharray: none; stroke-linecap: butt; stroke-dashoffset: 0; stroke-linejoin: miter; stroke-miterlimit: 4; fill: rgb(255,255,255); fill-rule: nonzero; opacity: 1;" vector-effect="non-scaling-stroke"  transform=" translate(-2.5, -1)" d="M 0 0 L 5 0 L 5 2 L 0 2 z" stroke-linecap="round" />
</g>
<g transform="matrix(1 0 0 1 16.5 134)" id="1VaKbML29EIXsfPhJnCS2"  >
<path style="stroke: rgb(255,255,255); stroke-width: 0; stroke-dasharray: none; stroke-linecap: butt; stroke-dashoffset: 0; stroke-linejoin: miter; stroke-miterlimit: 4; fill: rgb(255,255,255); fill-rule: nonzero; opacity: 1;" vector-effect="non-scaling-stroke"  transform=" translate(-2.5, -1)" d="M 0 0 L 5 0 L 5 2 L 0 2 z" stroke-linecap="round" />
</g>
<g transform="matrix(1 0 0 1 232.5 267)" id="q3Cqwv4b8OC2B7tA9NmvF"  >
<path style="stroke: rgb(255,255,255); stroke-width: 0; stroke-dasharray: none; stroke-linecap: butt; stroke-dashoffset: 0; stroke-linejoin: miter; stroke-miterlimit: 4; fill: rgb(255,255,255); fill-rule: nonzero; opacity: 1;" vector-effect="non-scaling-stroke"  transform=" translate(-2.5, -1)" d="M 0 0 L 5 0 L 5 2 L 0 2 z" stroke-linecap="round" />
</g>
<g transform="matrix(1 0 0 1 9.5 134)" id="Bo0IWFWUtVW3RYEVoJaZo"  >
<path style="stroke: rgb(255,255,255); stroke-width: 0; stroke-dasharray: none; stroke-linecap: butt; stroke-dashoffset: 0; stroke-linejoin: miter; stroke-miterlimit: 4; fill: rgb(255,255,255); fill-rule: nonzero; opacity: 1;" vector-effect="non-scaling-stroke"  transform=" translate(-2.5, -1)" d="M 0 0 L 5 0 L 5 2 L 0 2 z" stroke-linecap="round" />
</g>
<g transform="matrix(1 0 0 1 246.5 267)" id="PaWtSY6199Bv3l2EVdFuh"  >
<path style="stroke: rgb(255,255,255); stroke-width: 0; stroke-dasharray: none; stroke-linecap: butt; stroke-dashoffset: 0; stroke-linejoin: miter; stroke-miterlimit: 4; fill: rgb(255,255,255); fill-rule: nonzero; opacity: 1;" vector-effect="non-scaling-stroke"  transform=" translate(-2.5, -1)" d="M 0 0 L 5 0 L 5 2 L 0 2 z" stroke-linecap="round" />
</g>
<g transform="matrix(1 0 0 1 2.5 134)" id="Q9DNhPYr1EzVEq1569EHP"  >
<path style="stroke: rgb(255,255,255); stroke-width: 0; stroke-dasharray: none; stroke-linecap: butt; stroke-dashoffset: 0; stroke-linejoin: miter; stroke-miterlimit: 4; fill: rgb(255,255,255); fill-rule: nonzero; opacity: 1;" vector-effect="non-scaling-stroke"  transform=" translate(-2.5, -1)" d="M 0 0 L 5 0 L 5 2 L 0 2 z" stroke-linecap="round" />
</g>
<g transform="matrix(1 0 0 1 239.5 267)" id="35v2wnSUouy80FjOX2CAE"  >
<path style="stroke: rgb(255,255,255); stroke-width: 0; stroke-dasharray: none; stroke-linecap: butt; stroke-dashoffset: 0; stroke-linejoin: miter; stroke-miterlimit: 4; fill: rgb(255,255,255); fill-rule: nonzero; opacity: 1;" vector-effect="non-scaling-stroke"  transform=" translate(-2.5, -1)" d="M 0 0 L 5 0 L 5 2 L 0 2 z" stroke-linecap="round" />
</g>
<g transform="matrix(1 0 0 1 253.5 134)" id="6-E-lhkEG9JdVo4z0iWVw"  >
<path style="stroke: rgb(255,255,255); stroke-width: 0; stroke-dasharray: none; stroke-linecap: butt; stroke-dashoffset: 0; stroke-linejoin: miter; stroke-miterlimit: 4; fill: rgb(255,255,255); fill-rule: nonzero; opacity: 1;" vector-effect="non-scaling-stroke"  transform=" translate(-2.5, -1)" d="M 0 0 L 5 0 L 5 2 L 0 2 z" stroke-linecap="round" />
</g>
<g transform="matrix(1 0 0 1 232.5 134)" id="NnrHdebHlMIVRyBb4FFfk"  >
<path style="stroke: rgb(255,255,255); stroke-width: 0; stroke-dasharray: none; stroke-linecap: butt; stroke-dashoffset: 0; stroke-linejoin: miter; stroke-miterlimit: 4; fill: rgb(255,255,255); fill-rule: nonzero; opacity: 1;" vector-effect="non-scaling-stroke"  transform=" translate(-2.5, -1)" d="M 0 0 L 5 0 L 5 2 L 0 2 z" stroke-linecap="round" />
</g>
<g transform="matrix(1 0 0 1 246.5 134)" id="Lhy7OlgxHYqtBon0Hc7gE"  >
<path style="stroke: rgb(255,255,255); stroke-width: 0; stroke-dasharray: none; stroke-linecap: butt; stroke-dashoffset: 0; stroke-linejoin: miter; stroke-miterlimit: 4; fill: rgb(255,255,255); fill-rule: nonzero; opacity: 1;" vector-effect="non-scaling-stroke"  transform=" translate(-2.5, -1)" d="M 0 0 L 5 0 L 5 2 L 0 2 z" stroke-linecap="round" />
</g>
<g transform="matrix(1 0 0 1 239.5 134)" id="Wn5AMWk3cqxfil2JuuqbU"  >
<path style="stroke: rgb(255,255,255); stroke-width: 0; stroke-dasharray: none; stroke-linecap: butt; stroke-dashoffset: 0; stroke-linejoin: miter; stroke-miterlimit: 4; fill: rgb(255,255,255); fill-rule: nonzero; opacity: 1;" vector-effect="non-scaling-stroke"  transform=" translate(-2.5, -1)" d="M 0 0 L 5 0 L 5 2 L 0 2 z" stroke-linecap="round" />
</g>
</svg>